<svg width="130" height="82" viewBox="0 0 130 82" fill="none" xmlns="http://www.w3.org/2000/svg">
<g clip-path="url(#clip0_723_92)">
<path fill-rule="evenodd" clip-rule="evenodd" d="M58.7784 0.453809C54.6594 1.52181 50.4614 4.68381 48.5954 8.12481C48.3484 8.58081 48.0814 8.62681 46.0834 8.55781C40.6064 8.36881 35.6744 11.8728 33.6664 17.3798L33.1274 18.8568L31.6134 19.1388C23.3534 20.6748 18.1034 29.5998 20.9764 37.2218L21.6334 38.9658L20.8854 40.4768C16.3724 49.5938 22.4794 59.6868 33.0044 60.5058C34.6834 60.6368 35.3614 60.8208 36.2914 61.3978C38.9144 63.0238 41.2674 62.9928 43.7854 61.2988L45.0244 60.4648L46.3224 60.9818C50.5564 62.6688 57.4284 61.2408 61.4634 57.8358C63.1214 56.4368 63.1144 56.4368 63.1144 57.8918C63.1144 58.9008 63.1834 59.0608 63.5704 58.9498C63.8214 58.8788 65.3734 58.4528 67.0214 58.0038C75.7384 55.6308 84.5294 52.3338 92.7944 48.3378C96.9844 46.3128 97.0104 46.2868 96.0704 45.1368L95.4504 44.3788L94.0614 44.9918C88.5554 47.4208 80.6684 44.6798 78.1084 39.4488C73.0984 29.2068 82.7764 18.5018 93.8544 22.0318C101.981 24.6218 105.088 34.8898 99.6864 41.3098L98.9944 42.1328L99.6094 43.0348C99.9474 43.5318 100.341 43.9398 100.484 43.9408C101.058 43.9478 105.854 40.4558 108.427 38.1578L111.161 35.7158L111.241 34.0338C111.536 27.8188 107.766 20.2208 102.161 15.7358C95.5114 10.4158 87.0204 8.70781 78.0464 10.8848L75.6594 11.4638L73.5034 10.7108L71.3464 9.95681L71.4134 8.38281C71.6694 2.38981 65.7174 -1.34519 58.7784 0.453809ZM65.0674 3.93381C68.6454 5.61381 69.1494 9.61581 66.0364 11.6138C64.3644 12.6868 64.4944 12.0358 64.4404 19.5928C64.4154 23.1738 64.2854 29.5598 64.1524 33.7858C64.0194 38.0108 63.9074 43.5528 63.9034 46.1008C63.8944 51.5218 63.7834 51.8728 61.2424 54.5188C53.7464 62.3258 39.0824 57.1828 42.9104 48.0898C43.1984 47.4058 41.7604 46.8868 41.2864 47.5028C39.1684 50.2558 39.4314 54.6728 41.9054 57.9168C43.2384 59.6638 39.8294 60.2448 38.2844 58.5348L37.3014 57.4468L35.9644 57.7338C29.0124 59.2248 21.7224 51.9188 22.9604 44.6998C23.4654 41.7538 23.5494 41.6808 25.1634 42.7688C25.9074 43.2698 27.0844 43.8678 27.7794 44.0988C29.1474 44.5528 29.9104 45.4688 30.2004 47.0018C30.5744 48.9788 31.5714 47.7928 31.3504 45.6348C31.2384 44.5398 30.4214 43.3108 29.2894 42.5348C24.0584 38.9488 22.3494 33.3178 24.9414 28.2128C28.3274 21.5428 37.6484 19.7628 42.9954 24.7628C44.2104 25.8998 44.2634 25.9208 44.8274 25.4958L45.4084 25.0578L44.5324 23.7578C42.8334 21.2368 40.9024 19.9068 37.9344 19.2128C36.6144 18.9048 36.5884 18.8798 36.8434 18.2028C39.3894 11.4488 48.4784 9.48081 51.4984 15.0308C52.2004 16.3198 52.6854 16.5848 53.4534 16.0988C54.2704 15.5818 53.2714 12.3598 51.8054 10.7818L51.1204 10.0438L51.6574 9.17381C54.3424 4.83081 61.2394 2.13481 65.0674 3.93381ZM74.3624 4.06181C73.3774 4.68681 74.7694 6.05081 76.3924 6.05081C77.6144 6.05081 78.0404 6.16682 78.5404 6.63682C79.9124 7.92582 80.2424 6.98581 78.9394 5.50081C77.6904 4.07781 75.4484 3.37281 74.3624 4.06181ZM103.609 10.7698C101.058 11.0208 100.76 11.1258 101.238 11.6038C101.614 11.9788 102.344 12.0438 106.418 12.0598C111.574 12.0818 112.337 12.1638 115.849 13.0778C117.138 13.4138 118.346 13.7278 118.533 13.7758C118.73 13.8268 119.017 13.4578 119.214 12.9008L119.554 11.9368L117.181 11.3618C114.865 10.7998 106.848 10.4498 103.609 10.7698ZM123.527 11.3548C120.906 12.7598 120.939 16.6898 123.582 18.0568C125.361 18.9768 127.957 18.2478 129.001 16.5348C131.001 13.2548 127.016 9.48481 123.527 11.3548ZM55.8884 16.3948C55.3644 16.6478 55.3024 16.8688 55.3024 18.4688C55.3024 20.2658 54.8664 21.7738 54.1034 22.6168C53.7444 23.0138 53.7634 23.0958 54.3094 23.4808C56.0874 24.7368 58.2764 19.3588 57.0674 16.7048C56.7484 16.0048 56.7144 15.9968 55.8884 16.3948ZM73.7854 20.4568C75.2214 21.5218 75.3364 23.6068 74.0324 24.9108C72.0144 26.9288 68.8434 25.6298 68.8434 22.7848C68.8434 20.2278 71.6774 18.8928 73.7854 20.4568ZM127.177 20.8058C126.819 20.9158 126.22 21.0668 125.847 21.1408C125.235 21.2628 125.153 21.4228 125.009 22.7788C123.126 40.4738 78.0474 63.5058 40.1984 66.1098C5.56344 68.4938 -7.99157 53.4348 14.1564 37.1788C15.3734 36.2848 16.4014 35.5248 16.4404 35.4888C16.4794 35.4528 16.4174 35.1688 16.3024 34.8578C15.8204 33.5568 6.62243 41.0038 3.48843 45.2308C-8.35157 61.2028 11.2024 73.7798 43.1924 70.7678C85.5334 66.7808 130.505 41.3258 128.345 22.5708C128.137 20.7648 127.997 20.5538 127.177 20.8058ZM86.7474 26.5898C78.9944 29.4768 81.3394 41.3508 89.6584 41.3338C93.0214 41.3268 93.0284 41.3128 90.9624 38.4928C90.0934 37.3068 89.4204 36.3058 89.4654 36.2678C89.5104 36.2298 90.4844 36.1378 91.6304 36.0628L93.7134 35.9268L94.5904 37.0698C95.6894 38.5028 95.8304 38.4958 96.5064 36.9758C99.2564 30.7948 93.0864 24.2288 86.7474 26.5898ZM74.2514 36.5848L74.3194 44.9838H71.7124H69.1044V36.6938C69.1044 32.1338 69.1864 28.3208 69.2874 28.2208C69.3874 28.1198 70.5304 28.0718 71.8264 28.1118L74.1824 28.1868L74.2514 36.5848ZM42.2664 33.3248C40.3634 33.9898 37.5914 35.5718 37.5974 35.9888C37.6114 36.9418 38.0644 37.0038 39.6924 36.2738C44.8924 33.9398 51.3624 36.1998 53.7904 41.1978C54.1664 41.9728 54.4964 42.3448 54.7274 42.2558C54.9234 42.1808 55.2504 42.1188 55.4534 42.1188C56.0184 42.1188 55.9194 40.0578 55.2704 38.2878C53.6564 33.8818 47.4494 31.5138 42.2664 33.3248ZM107.255 51.7828C98.9354 56.9278 82.8514 63.3558 67.5584 67.6468C63.7184 68.7248 62.6574 69.1208 62.2594 69.6278C61.1324 71.0598 57.3904 72.3268 54.2884 72.3268C52.1014 72.3268 51.9354 72.6068 53.7694 73.1988C55.4284 73.7348 58.0114 73.7528 59.4674 73.2388C61.2954 72.5938 61.9784 73.1308 62.9724 75.9988C65.8304 84.2378 78.5824 81.7608 79.1944 72.8478C79.4914 68.5098 80.1994 68.0358 86.4104 68.0138C96.7294 67.9778 104.016 63.2608 108.418 53.7668C110.194 49.9358 110.207 49.9578 107.255 51.7828Z" fill="url(#paint0_linear_723_92)"/>
</g>
<defs>
<linearGradient id="paint0_linear_723_92" x1="22.03" y1="7" x2="127" y2="67.6045" gradientUnits="userSpaceOnUse">
<stop stop-color="#111231"/>
<stop offset="1" stop-color="#252654"/>
</linearGradient>
<clipPath id="clip0_723_92">
<rect width="129.538" height="81.0261" fill="white"/>
</clipPath>
</defs>
</svg>
